<svg width="85" height="49" viewBox="0 0 85 49" fill="none" xmlns="http://www.w3.org/2000/svg">
<path fill-rule="evenodd" clip-rule="evenodd" d="M15.3918 46.3917H82.9324V16.2972H15.3918V46.3917ZM3.5189 2.74312H7.57315L18.865 14.2297H14.8107L3.5189 2.74312ZM14.5268 2.74312L25.8186 14.2297H21.7643L10.4725 2.74312H14.5268ZM21.4803 2.74312L32.7721 14.2297H28.7179L17.4261 2.74312H21.4803ZM28.4342 2.74312L39.726 14.2297H35.6717L24.3799 2.74312H28.4342ZM35.3873 2.74312L46.6791 14.2297H42.6249L31.3331 2.74312H35.3873ZM42.341 2.74312L53.6328 14.2297H49.5785L38.2867 2.74312H42.341ZM49.2946 2.74312L60.5864 14.2297H56.5322L45.2404 2.74312H49.2946ZM56.2484 2.74312L67.5402 14.2297H63.4859L52.1941 2.74312H56.2484ZM63.2019 2.74312L74.4937 14.2297H70.4394L59.1476 2.74312H63.2019ZM70.209 2.74312L81.5008 14.2297H77.3933L66.1015 2.74312H70.209ZM71.0754 0.675751H0V34.2948L13.8493 48.4597H85V14.8384L71.0754 0.675751Z" fill="black"/>
<path d="M29.7427 32.72H32.0764V21.3289H29.4326L26.6746 26.6654H26.642L23.8513 21.3289H21.2239V32.72H23.5576V25.1314H23.6065L24.4715 26.9266L26.642 30.9412L28.8615 26.9102L29.6938 25.2456H29.7427V32.72Z" fill="black"/>
<path d="M44.5174 32.72L40.8129 21.3289H37.7448L33.9913 32.72H36.5045L37.3205 30.011H41.123L41.9389 32.72H44.5174ZM40.5191 27.9057H37.908L39.1646 23.581H39.2462L40.5191 27.9057Z" fill="black"/>
<path d="M53.4046 32.72H56.3258L52.148 26.0127L55.9831 21.3289H53.1761L50.614 24.5439L48.9983 26.747H48.9004V21.3289H46.4198V32.72H48.9004V29.554L50.3855 27.7589L53.4046 32.72Z" fill="black"/>
<path d="M65.8612 32.72V30.5169H60.59V28.0526H65.1105V25.8658H60.59V23.5321H65.8612V21.3289H58.1094V32.72H65.8612Z" fill="black"/>
<path d="M70.8292 28.5422H72.6081L74.5991 32.72H77.3571L75.1213 28.2484C76.5085 27.7262 77.1939 26.5023 77.1939 24.9682C77.1939 22.7977 75.8557 21.3289 73.7504 21.3289H68.3487V32.72H70.8292V28.5422ZM70.8292 26.4533V23.4831H73.4404C74.1748 23.4831 74.6317 23.8748 74.6317 24.6092V25.3272C74.6317 26.0616 74.1748 26.4533 73.4404 26.4533H70.8292Z" fill="black"/>
<path d="M67.1427 42.678V42.2382H64.5869V36.886H64.089V42.678H67.1427Z" fill="black"/>
<path d="M72.5411 42.678L70.4831 36.886H69.8442L67.7945 42.678H68.2924L68.9231 40.8773H71.3876L72.0183 42.678H72.5411ZM71.2549 40.4458H69.0476L70.1346 37.3589H70.1678L71.2549 40.4458Z" fill="black"/>
<path d="M73.5783 42.678H76.0512C76.9391 42.678 77.5199 41.9976 77.5199 41.0433C77.5199 40.1388 76.9474 39.7073 76.408 39.6409V39.6077C76.8395 39.5082 77.2959 39.1513 77.2959 38.3464C77.2959 37.4336 76.7482 36.886 75.8437 36.886H73.5783V42.678ZM74.0762 39.8816H75.9184C76.6154 39.8816 76.9889 40.3048 76.9889 40.9022V41.2093C76.9889 41.815 76.6154 42.2382 75.9184 42.2382H74.0762V39.8816ZM74.0762 37.3258H75.7939C76.4246 37.3258 76.7648 37.6992 76.7648 38.2302V38.5456C76.7648 39.0684 76.4246 39.4501 75.7939 39.4501H74.0762V37.3258Z" fill="black"/>
<path d="M21.4698 39.1291H60.2436V40.7313H21.4698V39.1291Z" fill="black"/>
</svg>
